<?xml version="1.0" encoding="UTF-8"?>
<svg id="Capa_2" data-name="Capa 2" xmlns="http://www.w3.org/2000/svg" viewBox="0 0 162.7 162.7">
  <defs>
    <style>
      .cls-1 {
        fill: #fff;
      }

      .cls-2 {
        fill: #ffd02a;
      }

      .cls-3 {
        fill: #1d1d1b;
      }
    </style>
  </defs>
  <g id="Capa_1-2" data-name="Capa 1">
    <g>
      <rect class="cls-2" width="162.7" height="162.7" rx="35.4" ry="35.4"/>
      <g>
        <polygon class="cls-3" points="119.69 82.18 131.89 66.15 145.33 31.29 91.63 31.29 91.63 31.31 83.01 44.5 74.06 31.31 20.25 31.31 33.62 66.17 42.54 78.03 31 101.52 19.97 115.83 33.41 132.57 75.63 132.57 82.44 122.38 89.55 132.57 131.86 132.57 145.3 115.83 119.69 82.18"/>
        <g>
          <polygon class="cls-1" points="126.32 40.71 96.72 40.71 83.81 60.53 82.51 60.53 69.08 40.71 39.09 40.71 63.6 73.31 63.6 74.61 39.09 106.43 68.69 106.43 81.6 87.13 82.9 87.13 96.33 106.43 126.32 106.43 101.81 74.22 101.81 72.92 126.32 40.71"/>
          <polygon class="cls-2" points="126.35 40.69 95.59 81.11 83.39 97.17 70.89 80.74 39.06 106.45 39.06 106.45 70.4 42.66 82.52 60.52 83.18 60.52 83.81 60.52 96.72 40.69 126.35 40.69"/>
        </g>
      </g>
    </g>
  </g>
</svg>