<?xml version="1.0" encoding="UTF-8"?>
<svg id="Capa_2" data-name="Capa 2" xmlns="http://www.w3.org/2000/svg" viewBox="0 0 162.7 162.7">
  <defs>
    <style>
      .cls-1 {
        fill: #fff;
      }

      .cls-2 {
        fill: #ffd02a;
      }

      .cls-3 {
        fill: none;
      }

      .cls-4 {
        fill: #1d1d1b;
      }
    </style>
  </defs>
  <g id="Capa_1-2" data-name="Capa 1">
    <g>
      <rect class="cls-2" width="162.7" height="162.7" rx="35.4" ry="35.4"/>
      <g>
        <polygon class="cls-4" points="124.72 76.65 121.17 80.2 131.59 80.2 131.59 124.73 131.46 124.73 131.46 124.85 131.34 124.85 131.34 124.97 131.21 124.97 131.21 125.1 131.09 125.1 131.09 125.22 130.97 125.22 130.97 125.35 130.84 125.35 130.84 125.48 130.71 125.48 130.71 125.6 130.59 125.6 130.59 125.72 130.47 125.72 130.47 125.85 130.34 125.85 130.34 125.97 130.22 125.97 130.22 126.1 130.09 126.1 130.09 126.23 129.96 126.23 129.96 126.35 129.84 126.35 129.84 126.47 129.72 126.47 129.72 126.6 129.59 126.6 129.59 126.72 129.47 126.72 129.47 126.85 129.34 126.85 129.34 126.97 129.22 126.97 129.22 127.1 129.09 127.1 129.09 127.22 128.97 127.22 128.97 127.34 128.85 127.34 128.85 127.47 128.72 127.47 128.72 127.6 128.59 127.6 128.59 127.72 128.47 127.72 128.47 127.85 128.34 127.85 128.34 127.97 128.22 127.97 128.22 128.09 128.1 128.09 128.1 128.22 127.97 128.22 127.97 128.35 127.84 128.35 127.84 128.47 127.72 128.47 127.72 128.59 127.59 128.59 127.59 128.72 127.47 128.72 127.47 128.84 127.35 128.84 127.35 128.97 127.22 128.97 127.22 129.1 127.09 129.1 127.09 129.22 126.97 129.22 126.97 129.34 126.85 129.34 126.85 129.47 126.72 129.47 126.72 129.59 126.6 129.59 126.6 129.72 126.47 129.72 126.47 129.84 126.34 129.84 126.34 129.97 126.22 129.97 126.22 130.09 126.1 130.09 126.1 130.21 125.97 130.21 125.97 130.34 125.85 130.34 125.85 130.47 125.72 130.47 125.72 130.59 125.6 130.59 125.6 130.72 125.47 130.72 125.47 130.84 125.35 130.84 125.35 130.96 125.23 130.96 125.23 131.09 125.1 131.09 125.1 131.22 124.97 131.22 124.97 131.34 124.85 131.34 124.85 131.46 124.72 131.46 124.72 131.59 86.04 131.59 80.8 126.35 80.74 126.35 80.74 126.47 80.61 126.47 80.61 126.6 80.49 126.6 80.49 126.72 80.37 126.72 80.37 126.84 80.24 126.84 80.24 126.96 80.12 126.96 80.12 127.1 79.99 127.1 79.99 127.22 79.86 127.22 79.86 127.34 79.74 127.34 79.74 127.47 79.62 127.47 79.62 127.59 79.49 127.59 79.49 127.71 79.37 127.71 79.37 127.85 79.24 127.85 79.24 127.97 79.12 127.97 79.12 128.09 78.99 128.09 78.99 128.22 78.87 128.22 78.87 128.34 78.75 128.34 78.75 128.46 78.61 128.46 78.61 128.59 78.49 128.59 78.49 128.72 78.37 128.72 78.37 128.84 78.24 128.84 78.24 128.96 78.12 128.96 78.12 129.09 78 129.09 78 129.21 77.86 129.21 77.86 129.34 77.74 129.34 77.74 129.47 77.62 129.47 77.62 129.59 77.49 129.59 77.49 129.71 77.37 129.71 77.37 129.84 77.25 129.84 77.25 129.97 77.12 129.97 77.12 130.09 76.99 130.09 76.99 130.21 76.87 130.21 76.87 130.34 76.75 130.34 76.75 130.46 76.62 130.46 76.62 130.58 76.5 130.58 76.5 130.72 76.37 130.72 76.37 130.84 76.24 130.84 76.24 130.96 76.12 130.96 76.12 131.09 76 131.09 76 131.21 75.87 131.21 75.87 131.33 75.75 131.33 75.75 131.46 75.62 131.46 75.62 131.59 31.1 131.59 31.1 68.37 43.81 55.65 51.7 47.76 61.49 37.97 61.63 37.84 61.75 37.72 61.87 37.6 62 37.47 62.24 37.22 62.37 37.1 63.12 36.35 63.25 36.22 63.37 36.1 63.49 35.98 63.62 35.84 63.74 35.72 63.99 35.48 64.12 35.35 64.24 35.23 64.36 35.1 64.49 34.97 64.5 34.97 64.62 34.85 64.87 34.6 64.99 34.48 65.11 34.35 65.25 34.22 65.74 33.73 65.86 33.6 65.99 33.48 66.36 33.11 66.61 32.85 66.74 32.73 66.87 32.6 66.99 32.48 67.11 32.36 67.24 32.23 67.49 31.98 67.86 31.61 67.98 31.48 68.12 31.35 68.24 31.23 68.36 31.11 131.59 31.11 131.59 69.79 131.46 69.92 131.21 70.16 131.09 70.29 130.97 70.41 130.84 70.54 130.71 70.67 130.22 71.16 130.09 71.29 129.96 71.41 129.84 71.54 129.72 71.66 129.47 71.91 129.47 71.92 129.34 72.04 129.22 72.16 129.09 72.29 128.97 72.41 128.85 72.53 128.59 72.79 128.47 72.91 128.22 73.16 128.1 73.28 127.97 73.41 127.72 73.66 127.59 73.78 127.47 73.91 127.35 74.03 127.22 74.16 127.09 74.28 126.85 74.53 126.72 74.65 126.6 74.78 126.47 74.91 126.34 75.03 126.22 75.16 125.97 75.4 125.85 75.54 125.72 75.66 125.47 75.91 125.35 76.03 125.1 76.28 124.97 76.41 124.85 76.53 124.72 76.65"/>
        <g>
          <polygon class="cls-1" points="121.6 41.09 121.6 65.65 97.06 90.19 97.05 90.19 97.05 65.64 47.96 65.64 72.5 41.09 121.6 41.09"/>
          <polygon class="cls-1" points="121.6 90.19 121.6 114.74 97.04 114.74 72.5 90.19 121.6 90.19"/>
          <polygon class="cls-1" points="72.5 90.17 72.5 114.74 47.95 114.74 47.95 65.64 47.97 65.64 72.5 90.17"/>
        </g>
        <polyline class="cls-3" points="51.7 47.76 43.81 55.65 31.1 68.37 31.1 68.38"/>
      </g>
    </g>
  </g>
</svg>